<svg width="206" height="206" viewBox="0 0 206 206" fill="none" xmlns="http://www.w3.org/2000/svg">
<circle cx="102.876" cy="102.876" r="102.876" fill="white"/>
<path d="M36.1489 127.083V119.441L58.7734 91.4309V91.0999H36.9311V80.8708H74.2075V89.2045L52.9668 116.522V116.853H74.9897V127.083H36.1489Z" fill="black"/>
<path d="M102.651 127.985C97.9782 127.985 93.9366 126.992 90.5269 125.007C87.1372 123.001 84.5198 120.213 82.6745 116.643C80.8292 113.053 79.9066 108.891 79.9066 104.157C79.9066 99.3836 80.8292 95.2117 82.6745 91.6415C84.5198 88.0512 87.1372 85.2633 90.5269 83.2776C93.9366 81.2719 97.9782 80.269 102.651 80.269C107.325 80.269 111.356 81.2719 114.746 83.2776C118.156 85.2633 120.783 88.0512 122.629 91.6415C124.474 95.2117 125.396 99.3836 125.396 104.157C125.396 108.891 124.474 113.053 122.629 116.643C120.783 120.213 118.156 123.001 114.746 125.007C111.356 126.992 107.325 127.985 102.651 127.985ZM102.712 118.057C104.838 118.057 106.613 117.455 108.037 116.252C109.461 115.028 110.534 113.363 111.256 111.257C111.998 109.151 112.369 106.755 112.369 104.067C112.369 101.379 111.998 98.9824 111.256 96.8764C110.534 94.7704 109.461 93.1057 108.037 91.8822C106.613 90.6587 104.838 90.0469 102.712 90.0469C100.566 90.0469 98.7604 90.6587 97.2962 91.8822C95.8521 93.1057 94.759 94.7704 94.0169 96.8764C93.2948 98.9824 92.9338 101.379 92.9338 104.067C92.9338 106.755 93.2948 109.151 94.0169 111.257C94.759 113.363 95.8521 115.028 97.2962 116.252C98.7604 117.455 100.566 118.057 102.712 118.057Z" fill="black"/>
<path d="M152.915 127.985C148.242 127.985 144.2 126.992 140.791 125.007C137.401 123.001 134.784 120.213 132.938 116.643C131.093 113.053 130.17 108.891 130.17 104.157C130.17 99.3836 131.093 95.2117 132.938 91.6415C134.784 88.0512 137.401 85.2633 140.791 83.2776C144.2 81.2719 148.242 80.269 152.915 80.269C157.589 80.269 161.62 81.2719 165.01 83.2776C168.42 85.2633 171.047 88.0512 172.892 91.6415C174.738 95.2117 175.66 99.3836 175.66 104.157C175.66 108.891 174.738 113.053 172.892 116.643C171.047 120.213 168.42 123.001 165.01 125.007C161.62 126.992 157.589 127.985 152.915 127.985ZM152.975 118.057C155.102 118.057 156.877 117.455 158.301 116.252C159.725 115.028 160.798 113.363 161.52 111.257C162.262 109.151 162.633 106.755 162.633 104.067C162.633 101.379 162.262 98.9824 161.52 96.8764C160.798 94.7704 159.725 93.1057 158.301 91.8822C156.877 90.6587 155.102 90.0469 152.975 90.0469C150.829 90.0469 149.024 90.6587 147.56 91.8822C146.116 93.1057 145.023 94.7704 144.281 96.8764C143.559 98.9824 143.198 101.379 143.198 104.067C143.198 106.755 143.559 109.151 144.281 111.257C145.023 113.363 146.116 115.028 147.56 116.252C149.024 117.455 150.829 118.057 152.975 118.057Z" fill="black"/>
</svg>
