<svg xmlns="http://www.w3.org/2000/svg" viewBox="0 0 100 100" fill="none">
  <circle cx="50" cy="50" r="50" fill="#1a1a2e"/>
  <circle cx="50" cy="50" r="45" fill="url(#lbtc-gradient)"/>
  <path d="M58 35c5.5 1.5 9 5 8.5 11-0.5 7.5-6 10-13.5 10.5V65h-6V56.5c-1.5 0-3 0-4.5-0.1V65h-6V56.3c-1.2 0-2.5-0.1-3.7-0.1H28l1-7s4.5 0.1 4.4 0c2.5 0 3.3-1.5 3.5-3V34.5c-0.1-1-0.5-2.5-2.5-2.5 0.1-0.1-4.4 0-4.4 0l-0.1-6.5h6c1.1 0 2.2 0 3.4 0V18h6v7.3c1.5 0 3-0.1 4.5-0.1V18h6v7.5c5 0.5 10 2 10.5 7.5 0.5 4-1 6.5-4.5 8.5z M42 31v9c3 0 10-0.5 10-4.5S45 31 42 31z M42 44v10c4 0 12-0.5 12-5s-8-5-12-5z" fill="white"/>
  <defs>
    <linearGradient id="lbtc-gradient" x1="5" y1="5" x2="95" y2="95" gradientUnits="userSpaceOnUse">
      <stop stop-color="#6366f1"/>
      <stop offset="0.5" stop-color="#F7931A"/>
      <stop offset="1" stop-color="#8b5cf6"/>
    </linearGradient>
  </defs>
</svg>
