<svg xmlns="http://www.w3.org/2000/svg" viewBox="0 0 100 100" fill="none">
  <circle cx="50" cy="50" r="50" fill="#2775CA"/>
  <path d="M50 15C30.67 15 15 30.67 15 50s15.67 35 35 35 35-15.67 35-35S69.33 15 50 15zm0 63c-15.46 0-28-12.54-28-28s12.54-28 28-28 28 12.54 28 28-12.54 28-28 28z" fill="white"/>
  <path d="M54 54.5c0-3.5-2.1-4.7-6.3-5.2-3-.4-3.6-1.2-3.6-2.6 0-1.4 1-2.3 3-2.3 1.8 0 2.8.6 3.2 2.1.1.3.3.5.6.5h1.4c.4 0 .6-.3.5-.6-.4-2.3-2-4-4.4-4.4v-2.5c0-.3-.3-.6-.6-.6h-1.4c-.3 0-.6.3-.6.6V42c-2.9.5-4.8 2.5-4.8 5 0 3.3 2 4.6 6.2 5.1 2.8.5 3.7 1.1 3.7 2.7 0 1.6-1.3 2.7-3.2 2.7-2.5 0-3.4-1.1-3.7-2.5-.1-.3-.3-.5-.6-.5h-1.5c-.4 0-.6.3-.5.6.5 2.6 2.2 4.4 5.1 5v2.5c0 .3.3.6.6.6h1.4c.3 0 .6-.3.6-.6v-2.5c3-.5 5-2.6 5-5.6z" fill="white"/>
  <path d="M39.3 66.4c-9.1-3.3-13.9-13.4-10.5-22.6 1.7-4.7 5.3-8.3 9.9-10.1.3-.1.5-.4.5-.7v-1.3c0-.3-.3-.6-.6-.5-5.7 1.9-10.3 6.2-12.4 11.9-4.2 11.5 1.7 24.3 13.2 28.5.3.1.6-.1.6-.5V70c0-.3-.2-.5-.5-.6-.1-.4-.1-.6-.2-1zm21.4-35.1c-.3-.1-.6.1-.6.5v1.2c0 .3.2.6.5.7 9.1 3.3 13.9 13.4 10.5 22.6-1.7 4.7-5.3 8.3-9.9 10.1-.3.1-.5.4-.5.7v1.3c0 .3.3.6.6.5 5.7-1.9 10.3-6.2 12.4-11.9 4.2-11.5-1.7-24.2-13.2-28.4.1.4.1.5.2.7z" fill="white"/>
</svg>
