<svg xmlns="http://www.w3.org/2000/svg" viewBox="0 0 100 100" fill="none">
  <circle cx="50" cy="50" r="50" fill="#26A17B"/>
  <path fill-rule="evenodd" clip-rule="evenodd" d="M55.84 54.45v-.02c-.33.02-2.03.13-5.82.13-3.02 0-5.15-.09-5.89-.13v.02c-11.64-.52-20.34-2.56-20.34-5.01 0-2.44 8.7-4.49 20.34-5.01v7.99c.75.05 2.93.18 5.94.18 3.61 0 5.43-.15 5.77-.18v-7.99c11.6.53 20.26 2.57 20.26 5.01 0 2.45-8.66 4.49-20.26 5.01zm0-10.84v-7.14h16.21V26H28.02v10.47h16.2v7.14C30.87 44.18 20 46.8 20 49.95c0 3.14 10.87 5.77 24.22 6.33v22.68h11.62V56.27C69.13 55.72 80 53.09 80 49.95c0-3.15-10.87-5.77-24.16-6.34z" fill="white"/>
</svg>
