<svg width="200px" height="50px" viewBox="0 0 769 145" fill="none" xmlns="http://www.w3.org/2000/svg">
<path d="M165.585 116V28.7273H184.037V100.787H221.452V116H165.585ZM275.305 88.1307V50.5455H293.458V116H276.029V104.111H275.347C273.87 107.946 271.413 111.028 267.975 113.358C264.566 115.687 260.404 116.852 255.489 116.852C251.114 116.852 247.265 115.858 243.941 113.869C240.617 111.881 238.018 109.054 236.143 105.389C234.296 101.724 233.359 97.3352 233.33 92.2216V50.5455H251.484V88.983C251.512 92.8466 252.549 95.9006 254.594 98.1449C256.64 100.389 259.381 101.511 262.819 101.511C265.006 101.511 267.052 101.014 268.955 100.02C270.859 98.9972 272.393 97.4915 273.558 95.5028C274.751 93.5142 275.333 91.0568 275.305 88.1307ZM323.149 50.5455L335.166 73.429L347.482 50.5455H366.104L347.141 83.2727L366.615 116H348.078L335.166 93.3722L322.467 116H303.717L323.149 83.2727L304.399 50.5455H323.149ZM424.644 116L399.673 28.7273H419.829L434.275 89.3665H434.999L450.937 28.7273H468.195L484.09 89.4943H484.857L499.303 28.7273H519.46L494.488 116H476.505L459.886 58.9403H459.204L442.627 116H424.644ZM540.628 117.236C536.452 117.236 532.73 116.511 529.463 115.062C526.196 113.585 523.611 111.412 521.707 108.543C519.832 105.645 518.895 102.037 518.895 97.7188C518.895 94.0824 519.563 91.0284 520.898 88.5568C522.233 86.0852 524.051 84.0966 526.352 82.5909C528.653 81.0852 531.267 79.9489 534.193 79.1818C537.148 78.4148 540.244 77.875 543.483 77.5625C547.29 77.1648 550.358 76.7955 552.688 76.4545C555.017 76.0852 556.707 75.5455 557.759 74.8352C558.81 74.125 559.335 73.0739 559.335 71.6818V71.4261C559.335 68.7273 558.483 66.6392 556.778 65.1619C555.102 63.6847 552.716 62.946 549.619 62.946C546.352 62.946 543.753 63.6705 541.821 65.1193C539.889 66.5398 538.611 68.3295 537.986 70.4886L521.196 69.125C522.048 65.1477 523.724 61.7102 526.224 58.8125C528.724 55.8864 531.949 53.642 535.898 52.0795C539.875 50.4886 544.477 49.6932 549.705 49.6932C553.341 49.6932 556.821 50.1193 560.145 50.9716C563.497 51.8239 566.466 53.1449 569.051 54.9347C571.665 56.7244 573.724 59.0256 575.23 61.8381C576.736 64.6222 577.489 67.9602 577.489 71.8523V116H560.273V106.923H559.761C558.71 108.969 557.304 110.773 555.543 112.335C553.781 113.869 551.665 115.077 549.193 115.957C546.722 116.81 543.866 117.236 540.628 117.236ZM545.827 104.707C548.497 104.707 550.855 104.182 552.901 103.131C554.946 102.051 556.551 100.602 557.716 98.7841C558.881 96.9659 559.463 94.9062 559.463 92.6051V85.6591C558.895 86.0284 558.114 86.3693 557.119 86.6818C556.153 86.9659 555.06 87.2358 553.838 87.4915C552.616 87.7187 551.395 87.9318 550.173 88.1307C548.952 88.3011 547.844 88.4574 546.849 88.5994C544.719 88.9119 542.858 89.4091 541.267 90.0909C539.676 90.7727 538.44 91.696 537.56 92.8608C536.679 93.9972 536.239 95.4176 536.239 97.1222C536.239 99.5938 537.134 101.483 538.923 102.79C540.741 104.068 543.043 104.707 545.827 104.707ZM609.726 28.7273V116H591.572V28.7273H609.726ZM642.421 28.7273V116H624.268V28.7273H642.421ZM686.793 117.278C680.06 117.278 674.264 115.915 669.406 113.188C664.577 110.432 660.855 106.54 658.241 101.511C655.628 96.4545 654.321 90.4744 654.321 83.571C654.321 76.8381 655.628 70.929 658.241 65.8438C660.855 60.7585 664.534 56.7955 669.278 53.9545C674.051 51.1136 679.648 49.6932 686.068 49.6932C690.386 49.6932 694.406 50.3892 698.128 51.7812C701.878 53.1449 705.145 55.2045 707.929 57.9602C710.741 60.7159 712.929 64.1818 714.491 68.358C716.054 72.5057 716.835 77.3636 716.835 82.9318V87.9176H661.565V76.6676H699.747C699.747 74.054 699.179 71.7386 698.043 69.7216C696.906 67.7045 695.33 66.1278 693.312 64.9915C691.324 63.8267 689.009 63.2443 686.366 63.2443C683.611 63.2443 681.168 63.8835 679.037 65.1619C676.935 66.4119 675.287 68.1023 674.094 70.233C672.901 72.3352 672.29 74.679 672.261 77.2642V87.9602C672.261 91.1989 672.858 93.9972 674.051 96.3551C675.273 98.7131 676.991 100.531 679.207 101.81C681.423 103.088 684.051 103.727 687.091 103.727C689.108 103.727 690.955 103.443 692.631 102.875C694.307 102.307 695.741 101.455 696.935 100.318C698.128 99.1818 699.037 97.7898 699.662 96.142L716.452 97.25C715.599 101.284 713.852 104.807 711.21 107.818C708.597 110.801 705.216 113.131 701.068 114.807C696.949 116.455 692.19 117.278 686.793 117.278ZM763.497 50.5455V64.1818H724.08V50.5455H763.497ZM733.028 34.8636H751.182V95.8864C751.182 97.5625 751.438 98.8693 751.949 99.8068C752.46 100.716 753.17 101.355 754.08 101.724C755.017 102.094 756.097 102.278 757.318 102.278C758.17 102.278 759.023 102.207 759.875 102.065C760.727 101.895 761.381 101.767 761.835 101.682L764.69 115.19C763.781 115.474 762.503 115.801 760.855 116.17C759.207 116.568 757.205 116.81 754.847 116.895C750.472 117.065 746.636 116.483 743.341 115.148C740.074 113.812 737.531 111.739 735.713 108.926C733.895 106.114 733 102.562 733.028 98.2727V34.8636Z" fill="white"/>
<circle cx="64.1895" cy="72.1895" r="64.1895" fill="white"/>
<path d="M63.7468 121.327L20.8086 46.9559L106.685 46.9559L63.7468 121.327Z" fill="#012D44"/>
</svg>
